<svg width="422" height="87" viewBox="0 0 422 87" fill="none" xmlns="http://www.w3.org/2000/svg">
<path d="M42.24 18.744C43.136 18.4027 44.3947 18.232 46.016 18.232C47.6373 18.232 49.088 18.3387 50.368 18.552C49.0453 28.3653 48 37.2613 47.232 45.24C46.5067 53.176 46.1013 57.3573 46.016 57.784C45.9733 58.2107 45.952 58.5947 45.952 58.936C45.9947 60.0453 46.528 60.6 47.552 60.6C50.112 60.6 53.6747 57.656 58.24 51.768C59.0507 54.0293 59.52 55.544 59.648 56.312C57.6 59.5547 55.1253 62.2213 52.224 64.312C49.3653 66.36 46.656 67.384 44.096 67.384C41.536 67.384 39.7653 66.7227 38.784 65.4C37.8027 64.0773 37.312 62.6053 37.312 60.984C37.312 60.6 37.3547 59.8533 37.44 58.744C37.568 57.6347 38.4213 50.7227 40 38.008L29.504 62.264H24.064L20.928 38.392L16.448 58.232C15.7227 61.3893 14.528 63.7147 12.864 65.208C11.2427 66.7013 9.45067 67.448 7.488 67.448C5.52533 67.448 3.92533 66.872 2.688 65.72C1.36533 64.4827 0.704 62.7333 0.704 60.472C0.704 55.9493 4.20267 52.088 11.2 48.888C14.9973 30.6693 17.0453 20.5787 17.344 18.616C18.368 18.36 19.7333 18.232 21.44 18.232C23.1893 18.232 24.384 18.2747 25.024 18.36H25.472L29.44 48.12L42.24 19.064V18.744ZM5.248 59.384C5.248 60.7493 5.78133 61.432 6.848 61.432C7.57333 61.432 8.17067 60.856 8.64 59.704C9.23733 58.296 9.728 56.44 10.112 54.136C6.86933 55.9707 5.248 57.72 5.248 59.384ZM64.9325 86.008C62.5005 86.008 60.4098 85.2613 58.6605 83.768C56.9112 82.3173 56.0365 80.184 56.0365 77.368C56.0365 73.912 57.7858 70.5413 61.2845 67.256C58.8098 67.0427 56.8258 66.232 55.3325 64.824C53.8392 63.416 53.0925 61.432 53.0925 58.872C53.0925 57.6773 53.2418 55.8853 53.5405 53.496C53.8392 51.1067 54.1592 48.5253 54.5005 45.752C54.8418 42.9787 55.2045 40.0347 55.5885 36.92C56.9112 36.4507 58.1272 36.216 59.2365 36.216C60.3458 36.216 61.1778 36.2587 61.7325 36.344C62.2872 36.4293 62.8205 36.7493 63.3325 37.304C63.8445 37.8587 64.1005 38.648 64.1005 39.672L61.9885 55.992C61.9032 56.6747 61.8605 57.144 61.8605 57.4C61.8605 59.9173 63.0125 61.176 65.3165 61.176C67.4072 61.176 69.1138 60.1947 70.4365 58.232C70.5645 57.2507 70.8845 54.4347 71.3965 49.784C71.9085 45.0907 72.3352 41.4427 72.6765 38.84C73.0605 38.0293 73.8498 37.3893 75.0445 36.92C76.2818 36.4507 77.2845 36.216 78.0525 36.216C79.4178 36.216 80.6552 36.3867 81.7645 36.728L78.7565 60.344C83.7485 61.24 86.7352 64.6747 87.7165 70.648C87.5458 71.4587 86.7352 72.7387 85.2845 74.488C84.4312 69.1547 82.0845 65.912 78.2445 64.76L77.2205 72.76C76.7512 76.6 75.5352 79.7573 73.5725 82.232C71.6098 84.7493 68.7298 86.008 64.9325 86.008ZM61.0285 76.152C61.0285 77.56 61.3698 78.6053 62.0525 79.288C62.7352 79.9707 63.6312 80.312 64.7405 80.312C65.8925 80.312 66.7672 79.8427 67.3645 78.904C67.9618 77.9653 68.4312 76.088 68.7725 73.272L69.6045 66.232C64.0152 69.1333 61.1565 72.44 61.0285 76.152ZM99.688 32.376C99.688 28.3227 101.48 24.9733 105.064 22.328C108.648 19.64 113.384 18.296 119.272 18.296C122.387 18.296 125.181 18.616 127.656 19.256C130.131 19.8533 132.093 20.6213 133.544 21.56C134.995 22.4987 136.211 23.5867 137.192 24.824C138.813 26.9573 139.603 29.3467 139.56 31.992C139.56 34.5947 138.536 36.92 136.488 38.968C134.44 41.016 131.965 42.0827 129.064 42.168C132.691 42.424 135.827 43.6187 138.472 45.752C141.16 47.8853 142.504 50.5733 142.504 53.816C142.504 58.0827 140.861 61.4107 137.576 63.8C134.291 66.1893 130.28 67.384 125.544 67.384C120.851 67.384 117.651 66.7653 115.944 65.528L117.928 60.152C119.805 61.1333 121.981 61.624 124.456 61.624C126.973 61.624 129.021 60.8987 130.6 59.448C132.179 57.9547 132.968 55.992 132.968 53.56C132.968 51.128 131.88 49.08 129.704 47.416C127.571 45.752 124.648 44.92 120.936 44.92L121.512 40.184C124.072 40.184 126.227 39.5867 127.976 38.392C129.768 37.1547 130.685 35.32 130.728 32.888C130.813 30.456 129.725 28.408 127.464 26.744C125.032 24.9947 121.704 24.12 117.48 24.12C114.707 24.12 111.997 24.8453 109.352 26.296C106.707 27.704 105.384 29.6027 105.384 31.992C105.384 33.144 105.853 34.1253 106.792 34.936C107.731 35.704 108.968 36.1733 110.504 36.344L109.8 41.08C106.557 40.952 104.061 40.0347 102.312 38.328C100.563 36.6213 99.688 34.6373 99.688 32.376ZM117.992 54.712C117.309 59.2773 115.987 62.52 114.024 64.44C112.061 66.3173 109.757 67.256 107.112 67.256C104.467 67.256 102.461 66.5733 101.096 65.208C99.7307 63.8427 99.048 62.0933 99.048 59.96C99.048 54.9253 102.867 50.6373 110.504 47.096C110.717 45.304 111.016 42.8933 111.4 39.864C111.827 36.792 112.147 34.3173 112.36 32.44C112.616 30.5627 112.787 29.3253 112.872 28.728C114.621 27.6187 116.648 27.064 118.952 27.064C120.019 27.064 121.043 27.1707 122.024 27.384L117.992 54.712ZM103.784 59.128C103.784 60.664 104.509 61.432 105.96 61.432C106.557 61.432 107.176 61.048 107.816 60.28C108.499 59.4693 108.968 58.2107 109.224 56.504L109.8 52.536C105.789 54.7973 103.784 56.9947 103.784 59.128ZM156.266 52.664C158.911 52.1093 160.874 51.0427 162.154 49.464C163.477 47.8853 164.138 46.3707 164.138 44.92C164.138 43.4267 163.733 42.424 162.922 41.912C162.154 41.3573 161.301 41.08 160.362 41.08C158.357 41.08 156.586 42.2107 155.05 44.472C153.557 46.6907 152.81 49.3573 152.81 52.472C152.81 55.544 153.535 57.848 154.986 59.384C156.479 60.8773 158.314 61.624 160.49 61.624C163.69 61.624 166.762 60.5147 169.706 58.296C172.65 56.0773 175.039 53.176 176.874 49.592C177.813 50.488 178.666 51.5973 179.434 52.92C178.026 56.12 175.53 59.256 171.946 62.328C170.154 63.8213 168.021 65.0373 165.546 65.976C163.114 66.9147 160.597 67.384 157.994 67.384C153.727 67.384 150.357 66.0827 147.882 63.48C145.237 60.664 143.914 57.0587 143.914 52.664C143.914 48.2693 145.557 44.4293 148.842 41.144C152.17 37.8587 156.138 36.216 160.746 36.216C164.031 36.216 166.698 36.9413 168.746 38.392C170.794 39.8 171.839 41.72 171.882 44.152C171.882 47.4373 170.559 50.104 167.914 52.152C165.311 54.2 161.727 55.6293 157.162 56.44L156.266 52.664ZM182.751 67.448C180.148 67.448 178.1 66.7227 176.607 65.272C175.113 63.7787 174.367 61.752 174.367 59.192C174.367 58.5093 175.519 48.376 177.823 28.792C178.42 23.7573 180.02 20.5787 182.623 19.256C183.817 18.616 185.247 18.296 186.911 18.296C192.543 18.296 195.359 20.8987 195.359 26.104C195.359 26.5307 195.337 26.9787 195.295 27.448C194.868 33.1653 191.284 38.9893 184.543 44.92C184.329 47.0107 184.095 49.0373 183.839 51C183.327 55.3947 183.071 57.8267 183.071 58.296C183.071 60.5147 184.031 61.624 185.951 61.624C188.041 61.624 189.983 60.4293 191.775 58.04C193.609 55.608 195.017 52.5147 195.999 48.76C196.383 48.888 196.916 49.2507 197.599 49.848C198.281 50.4027 198.751 50.8933 199.007 51.32C198.324 54.8613 196.788 58.2533 194.399 61.496C193.204 63.16 191.689 64.5253 189.855 65.592C187.764 66.8293 185.396 67.448 182.751 67.448ZM185.247 38.52C189.172 34.2107 191.135 30.3493 191.135 26.936C191.135 24.888 190.367 23.864 188.831 23.864C187.849 23.9493 187.188 24.5893 186.847 25.784C186.548 26.9787 186.249 28.92 185.951 31.608C185.695 34.296 185.524 35.96 185.439 36.6L185.247 38.52ZM210.505 36.216C214.43 36.216 217.694 37.4747 220.297 39.992C222.942 42.5093 224.265 45.5813 224.265 49.208C224.265 54.712 222.644 59.128 219.401 62.456C216.201 65.7413 212.318 67.384 207.753 67.384C203.188 67.384 199.561 66.0827 196.873 63.48C194.228 60.8773 192.905 57.656 192.905 53.816C192.905 48.44 194.548 44.1733 197.833 41.016C201.161 37.816 205.385 36.216 210.505 36.216ZM209.225 41.4C207.22 41.4 205.534 42.552 204.169 44.856C202.804 47.16 202.057 50.0613 201.929 53.56C201.929 56.0347 202.42 58.0827 203.401 59.704C204.425 61.3253 205.961 62.136 208.009 62.136C210.057 62.136 211.764 61.0053 213.129 58.744C214.537 56.4827 215.241 53.9013 215.241 51C215.241 48.0987 214.75 45.7947 213.769 44.088C212.788 42.296 211.273 41.4 209.225 41.4ZM251.051 55.544C249.728 59 247.808 61.8373 245.291 64.056C242.816 66.232 239.979 67.32 236.779 67.32C233.579 67.32 231.168 66.2747 229.547 64.184C227.968 62.0507 227.179 59.6187 227.179 56.888C227.179 56.3333 227.2 55.7787 227.243 55.224L229.419 36.984C230.784 36.472 232.235 36.216 233.771 36.216C236.587 36.216 237.995 37.2613 237.995 39.352C237.995 39.4373 237.632 42.296 236.907 47.928C236.224 53.5173 235.883 56.76 235.883 57.656C235.883 60.088 237.056 61.304 239.403 61.304C241.408 61.304 243.094 60.1733 244.459 57.912C246.848 53.816 248.107 49.1867 248.235 44.024H247.659C245.867 44.024 244.502 43.6187 243.563 42.808C242.496 41.8693 241.963 40.7387 241.963 39.416C241.963 38.0933 242.368 37.0267 243.179 36.216C244.16 35.3627 245.334 34.936 246.699 34.936C249.942 34.936 251.968 36.6213 252.779 39.992C254.059 39.8213 254.976 39.6507 255.531 39.48V43.128L253.163 43.512V44.6C253.12 48.44 252.416 52.088 251.051 55.544ZM245.611 39.416C245.611 40.1413 246.23 40.504 247.467 40.504C247.595 40.504 247.723 40.504 247.851 40.504C247.552 39.352 247.104 38.776 246.507 38.776C245.91 38.776 245.611 38.9893 245.611 39.416ZM267.954 52.664C270.599 52.1093 272.562 51.0427 273.842 49.464C275.164 47.8853 275.826 46.3707 275.826 44.92C275.826 43.4267 275.42 42.424 274.61 41.912C273.842 41.3573 272.988 41.08 272.05 41.08C270.044 41.08 268.274 42.2107 266.738 44.472C265.244 46.6907 264.498 49.3573 264.498 52.472C264.498 55.544 265.223 57.848 266.674 59.384C268.167 60.8773 270.002 61.624 272.178 61.624C275.378 61.624 278.45 60.5147 281.394 58.296C284.338 56.0773 286.727 53.176 288.562 49.592C289.5 50.488 290.354 51.5973 291.122 52.92C289.714 56.12 287.218 59.256 283.634 62.328C281.842 63.8213 279.708 65.0373 277.234 65.976C274.802 66.9147 272.284 67.384 269.682 67.384C265.415 67.384 262.044 66.0827 259.57 63.48C256.924 60.664 255.602 57.0587 255.602 52.664C255.602 48.2693 257.244 44.4293 260.53 41.144C263.858 37.8587 267.826 36.216 272.434 36.216C275.719 36.216 278.386 36.9413 280.434 38.392C282.482 39.8 283.527 41.72 283.57 44.152C283.57 47.4373 282.247 50.104 279.602 52.152C276.999 54.2 273.415 55.6293 268.85 56.44L267.954 52.664ZM310.31 20.856C310.609 20.1307 311.27 19.5333 312.294 19.064C313.361 18.552 314.619 18.296 316.07 18.296C317.563 18.296 318.673 18.5093 319.398 18.936C318.971 22.264 318.289 27.4907 317.35 34.616C315.387 49.5067 314.406 57.72 314.406 59.256C314.406 60.7493 315.046 61.496 316.326 61.496C317.435 61.496 318.587 60.8133 319.782 59.448C320.977 58.04 322.065 55.7573 323.046 52.6C324.241 53.752 325.073 55.0107 325.542 56.376C324.006 61.4533 321.595 64.7387 318.31 66.232C316.817 66.9573 315.409 67.32 314.086 67.32C310.289 67.32 307.75 65.9547 306.47 63.224C304.251 65.9973 301.414 67.384 297.958 67.384C294.502 67.384 291.579 66.2107 289.19 63.864C286.843 61.5173 285.67 58.424 285.67 54.584C285.67 48.9947 287.313 44.536 290.598 41.208C293.883 37.88 298.043 36.216 303.078 36.216C303.206 36.216 303.334 36.216 303.462 36.216C305.211 36.216 306.854 36.472 308.39 36.984L310.31 20.856ZM304.038 41.208C301.307 41.208 299.131 42.2533 297.51 44.344C295.931 46.392 294.993 49.464 294.694 53.56C294.651 53.944 294.63 54.3067 294.63 54.648C294.63 56.7387 295.121 58.4027 296.102 59.64C297.126 60.8773 298.427 61.496 300.006 61.496C302.694 61.496 304.721 59.5973 306.086 55.8L307.75 42.04C306.342 41.4853 305.105 41.208 304.038 41.208Z" fill="url(#paint0_linear_24_65)"/>
<path d="M386.568 66.7149C386.568 55.494 413.601 45.8032 415.641 30.502C417.681 15.2008 412.58 5.51005 400.85 5.51005C389.119 5.51005 385.548 14.1807 385.548 14.1807C385.548 14.1807 382.771 23.8715 387.588 26.4217C392.406 28.9719 394.729 22.3414 394.729 22.3414" stroke="url(#paint1_linear_24_65)" stroke-width="10"/>
<path d="M372.511 66.2048C372.511 54.9839 345.479 45.2932 343.439 29.992C341.398 14.6908 346.499 5 358.23 5C369.961 5 373.531 13.6707 373.531 13.6707C373.531 13.6707 376.308 23.3614 371.491 25.9116C366.674 28.4618 364.35 21.8313 364.35 21.8313" stroke="url(#paint2_linear_24_65)" stroke-width="10"/>
<defs>
<linearGradient id="paint0_linear_24_65" x1="170.833" y1="29.7708" x2="171.687" y2="78.0546" gradientUnits="userSpaceOnUse">
<stop stop-color="#D14A72"/>
<stop offset="1" stop-color="#39077A"/>
</linearGradient>
<linearGradient id="paint1_linear_24_65" x1="400.416" y1="5.51005" x2="400.416" y2="66.7149" gradientUnits="userSpaceOnUse">
<stop stop-color="#D14A72"/>
<stop offset="1" stop-color="#39077A"/>
</linearGradient>
<linearGradient id="paint2_linear_24_65" x1="358.664" y1="5" x2="358.664" y2="66.2048" gradientUnits="userSpaceOnUse">
<stop stop-color="#D14A72"/>
<stop offset="1" stop-color="#39077A"/>
</linearGradient>
</defs>
</svg>
